<?xml version="1.0" encoding="UTF-8"?>
<!DOCTYPE svg PUBLIC "-//W3C//DTD SVG 1.1//EN" "http://www.w3.org/Graphics/SVG/1.1/DTD/svg11.dtd">
<!-- Creator: CorelDRAW X7 -->
<svg xmlns="http://www.w3.org/2000/svg" xml:space="preserve" width="165.445mm" height="56.542mm" version="1.1" style="shape-rendering:geometricPrecision; text-rendering:geometricPrecision; image-rendering:optimizeQuality; fill-rule:evenodd; clip-rule:evenodd"
viewBox="0 0 16544 5654"
 xmlns:xlink="http://www.w3.org/1999/xlink">
 <defs>
  <style type="text/css">
   <![CDATA[
    .fil1 {fill:#018B06}
    .fil2 {fill:#018B06}
    .fil0 {fill:#FF5722}
   ]]>
  </style>
 </defs>
 <g id="Слой_x0020_1">
  <metadata id="CorelCorpID_0Corel-Layer"/>
  <g id="_2702480042704">
   <polygon class="fil0" points="7726,0 7701,1471 9397,1471 9397,5654 11098,5654 11098,1471 12681,1471 13781,0 "/>
   <polygon class="fil1" points="4900,2827 2762,5654 4956,5654 5788,4495 6608,5654 8813,5654 6675,2827 8813,0 6608,0 5788,1159 4956,0 2762,0 "/>
   <path class="fil2" d="M14365 0l2179 0 -368 492 -2179 0 368 -492zm1448 978l-368 492 -2179 0 368 -492 2179 0z"/>
   <path class="fil0" d="M1099 4184l2180 0 -368 492 -2180 0 368 -492zm1448 978l-368 492 -2179 0 368 -492 2179 0z"/>
  </g>
 </g>
</svg>
