<svg id="Слой_1" data-name="Слой 1" xmlns="http://www.w3.org/2000/svg" viewBox="0 0 625 214"><defs><style>.cls-1{fill:#ff5722;}.cls-2{fill:#018b06;}.cls-3{fill:#d66649;}</style></defs><title>_xt</title><g id="_2702480042704" data-name=" 2702480042704"><path class="cls-1" d="M513.19,214c-10.26,0-18.12-2.54-23.72-7.48s-8.26-12.28-8.26-21.76v-49H500.4v47.79c0,5.34,1.07,9.34,3.07,11.88s5.33,3.87,9.73,3.87,7.73-1.2,9.73-3.74,3.07-6.54,3.07-12V135.77h19.19v48.86c0,9.48-2.67,16.69-8.13,21.76S523.72,214,513.19,214"/><path class="cls-1" d="M551.31,214l26.25-78.23h20.92L624.87,214H605.14l-5.33-17.22h-24L570.63,214Zm44.38-31.11-7.86-25.23L580,182.89Z"/><path class="cls-1" d="M37.85,158.33,25.19,177h82.62l12.79-18.69Zm-25.19,37L0,214H82.62l12.66-18.69Z"/><path class="cls-2" d="M542.38,0,529.58,18.56h82.76L625,0ZM517.06,37,504.4,55.67h82.76L599.81,37Z"/><rect class="cls-3" x="440.96" y="195.31" width="18.52" height="18.56"/><polygon class="cls-1" points="419.24 0 355.01 0 277.85 0 277.85 55.67 355.01 55.67 355.01 214 419.24 214 419.24 55.67 482.68 55.67 520.66 0 520.66 0 419.24 0"/><polygon class="cls-2" points="332.89 0 250 0 218.68 46.19 187.23 0 104.34 0 177.24 106.93 104.34 214 187.23 214 218.68 167.81 250 214 332.89 214 260.13 106.93 332.89 0"/></g></svg>