<?xml version="1.0" encoding="utf-8"?>
<!-- Generator: Adobe Illustrator 19.1.1, SVG Export Plug-In . SVG Version: 6.00 Build 0)  -->
<svg version="1.1" id="Слой_1" xmlns="http://www.w3.org/2000/svg" xmlns:xlink="http://www.w3.org/1999/xlink" x="0px" y="0px"
	 viewBox="-72 117 814 328" style="enable-background:new -72 117 814 328;" xml:space="preserve">
<style type="text/css">
	.st0{fill:#2D3645;}
	.st1{fill:#9E9E9E;}
	.st2{fill:#397FC2;}
</style>
<g id="Слой_x0020_1">
	<g id="_1739553811840">
		<polygon class="st0" points="312.5,117 312.5,202.1 438.2,202.1 438.2,444.9 536.6,444.9 536.6,202.1 662.9,202.1 662.9,117 		"/>
		<path class="st1" d="M561.7,433.7c0-1.6,0.3-3,0.9-4.4c0.6-1.4,1.4-2.6,2.4-3.6s2.2-1.8,3.6-2.4c1.4-0.6,2.9-0.9,4.5-0.9
			s3.1,0.3,4.5,0.9s2.6,1.4,3.6,2.4s1.8,2.2,2.4,3.6c0.6,1.4,0.9,2.8,0.9,4.4s-0.3,3.1-0.9,4.4c-0.6,1.4-1.4,2.6-2.4,3.6
			s-2.2,1.8-3.6,2.3c-1.4,0.6-2.9,0.9-4.5,0.9s-3.1-0.3-4.5-0.9s-2.6-1.3-3.6-2.3s-1.8-2.2-2.4-3.6
			C562,436.8,561.7,435.3,561.7,433.7z M620.2,370.2V417c0,4.3,1,7.5,2.9,9.9c1.9,2.3,4.8,3.5,8.7,3.5c2.8,0,5.5-0.7,8-1.9
			c2.6-1.3,4.9-3,7.1-5.2v-53.1h18.9v73.7h-11.7c-1.2,0-2.2-0.3-3-0.9c-0.8-0.5-1.3-1.4-1.6-2.6l-1.3-5.3c-2.9,2.9-6.2,5.3-9.7,7.1
			c-3.5,1.8-7.7,2.7-12.6,2.7c-4,0-7.5-0.7-10.6-2.1s-5.6-3.3-7.7-5.8c-2.1-2.4-3.6-5.4-4.7-8.8c-1-3.4-1.6-7.2-1.6-11.3v-46.8
			L620.2,370.2L620.2,370.2z M733.5,443.9c-1.8,0-3.2-0.3-4.1-0.8c-0.9-0.5-1.7-1.6-2.2-3.1l-1.6-4.9c-1.9,1.6-3.7,3.1-5.4,4.3
			c-1.7,1.2-3.5,2.3-5.4,3.1c-1.8,0.8-3.9,1.5-6,1.9s-4.4,0.6-7,0.6c-3.1,0-6.1-0.4-8.7-1.3c-2.6-0.9-4.9-2.2-6.8-3.8
			c-1.9-1.7-3.4-3.8-4.4-6.3s-1.5-5.4-1.5-8.6c0-2.7,0.7-5.4,2.1-8.1c1.4-2.7,3.7-5.2,7.1-7.4c3.3-2.2,7.8-4,13.4-5.5
			c5.6-1.4,12.5-2.3,20.8-2.5v-3.9c0-4.8-1-8.2-2.9-10.5c-2-2.2-4.8-3.3-8.5-3.3c-2.8,0-5.1,0.3-6.9,1c-1.8,0.7-3.4,1.3-4.8,2.1
			c-1.4,0.8-2.7,1.5-3.9,2.1s-2.5,1-4,1c-1.3,0-2.4-0.3-3.3-1c-0.9-0.7-1.6-1.5-2.2-2.4l-3.4-5.9c4.3-3.9,9-6.9,14.1-8.8
			s10.7-2.9,16.7-2.9c4.3,0,8.1,0.7,11.5,2.1s6.3,3.3,8.7,5.9s4.2,5.6,5.4,9.1s1.8,7.4,1.8,11.6v46.4h-8.6L733.5,443.9L733.5,443.9z
			 M707.7,432.1c3.4,0,6.3-0.6,8.7-1.8c2.5-1.2,4.9-3.1,7.3-5.6v-11.9c-4.9,0.2-9,0.6-12.2,1.2c-3.3,0.6-5.8,1.4-7.8,2.4
			c-1.9,1-3.3,2.1-4.1,3.4s-1.2,2.7-1.2,4.1c0,3,0.8,5.1,2.5,6.3C702.5,431.5,704.8,432.1,707.7,432.1z"/>
		<polygon class="st2" points="94.9,280.7 -72,444.5 99.3,444.5 164.2,377.4 228.3,444.5 400.3,444.5 233.5,280.7 400.3,117 
			228.3,117 164.2,184.1 99.3,117 -72,117 		"/>
	</g>
</g>
</svg>
