<?xml version="1.0" encoding="UTF-8"?>
<!DOCTYPE svg PUBLIC "-//W3C//DTD SVG 1.1//EN" "http://www.w3.org/Graphics/SVG/1.1/DTD/svg11.dtd">
<!-- Creator: CorelDRAW X7 -->
<svg xmlns="http://www.w3.org/2000/svg" xml:space="preserve" width="297mm" height="210mm" version="1.1" style="shape-rendering:geometricPrecision; text-rendering:geometricPrecision; image-rendering:optimizeQuality; fill-rule:evenodd; clip-rule:evenodd"
viewBox="0 0 29700 21000"
 xmlns:xlink="http://www.w3.org/1999/xlink">
 <defs>
  <style type="text/css">
   <![CDATA[
    .fil0 {fill:#2D3645}
    .fil2 {fill:#397FC2}
    .fil1 {fill:#9E9E9E}
   ]]>
  </style>
 </defs>
 <g id="Слой_x0020_1">
  <metadata id="CorelCorpID_0Corel-Layer"/>
  <polygon class="fil0" points="11669,4133 11669,7254 16279,7254 16279,16162 19888,16162 19888,7254 24522,7254 24522,4133 "/>
  <path class="fil1" d="M20330 15901c0,-36 7,-70 20,-102 13,-32 31,-60 55,-83 24,-23 51,-41 84,-55 32,-14 66,-21 103,-21 37,0 71,7 104,21 32,14 60,32 83,55 24,23 43,51 56,83 14,32 21,66 21,102 0,36 -7,71 -21,103 -13,32 -32,60 -56,83 -23,23 -51,41 -83,54 -33,13 -67,20 -104,20 -37,0 -71,-7 -103,-20 -33,-13 -60,-31 -84,-54 -24,-23 -42,-51 -55,-83 -13,-32 -20,-67 -20,-103zm1358 -1477l0 1088c0,99 22,176 67,230 44,54 111,81 202,81 65,0 127,-15 186,-44 58,-30 113,-70 165,-120l0 -1235 438 0 0 1713 -269 0c-27,0 -51,-7 -70,-20 -18,-13 -31,-33 -37,-60l-31 -124c-68,68 -143,123 -225,166 -82,42 -179,64 -292,64 -93,0 -176,-16 -247,-49 -71,-32 -131,-77 -179,-134 -48,-57 -85,-126 -109,-205 -25,-80 -37,-167 -37,-263l0 -1088 438 0zm2633 1713c-42,0 -74,-6 -95,-18 -22,-12 -39,-37 -52,-73l-38 -115c-43,39 -85,72 -126,100 -40,29 -82,53 -125,73 -43,19 -89,34 -138,44 -49,10 -103,15 -162,15 -74,0 -142,-10 -202,-30 -61,-21 -114,-50 -158,-89 -44,-40 -79,-88 -103,-146 -24,-58 -36,-125 -36,-201 0,-64 16,-126 48,-189 33,-64 87,-121 165,-172 78,-52 181,-94 310,-128 130,-34 291,-53 484,-58l0 -91c0,-111 -23,-191 -69,-243 -46,-52 -112,-78 -198,-78 -65,0 -118,8 -160,23 -42,15 -79,31 -111,49 -32,18 -62,34 -90,49 -27,15 -58,22 -93,22 -30,0 -55,-7 -76,-23 -22,-16 -39,-34 -52,-56l-78 -138c98,-92 207,-160 327,-205 119,-45 249,-67 388,-67 100,0 190,16 269,49 79,32 147,78 202,138 55,59 97,129 126,211 28,82 43,171 43,269l0 1078 -200 0zm-600 -273c78,0 146,-14 202,-42 57,-28 114,-71 170,-130l0 -276c-114,4 -208,14 -284,29 -75,14 -135,32 -180,54 -44,23 -77,49 -96,79 -18,30 -28,62 -28,97 0,69 20,117 58,146 38,29 91,43 158,43z"/>
  <polygon class="fil2" points="11582,11708 7043,16162 11700,16162 13465,14336 15208,16162 19888,16162 15349,11708 19888,7254 15208,7254 13465,9080 11700,7254 7043,7254 "/>
 </g>
</svg>
