<?xml version="1.0" encoding="utf-8"?>
<!-- Generator: Adobe Illustrator 18.1.1, SVG Export Plug-In . SVG Version: 6.00 Build 0)  -->
<svg version="1.1" id="Слой_1" xmlns="http://www.w3.org/2000/svg" xmlns:xlink="http://www.w3.org/1999/xlink" x="0px" y="0px"
	 viewBox="94 125.4 599.6 191.3" enable-background="new 94 125.4 599.6 191.3" xml:space="preserve">
<image display="none" overflow="visible" enable-background="new    " width="83" height="56" xlink:href="6D95CA4E.jpeg"  transform="matrix(1.1113 0 0 1.1048 183.254 123.2814)">
</image>
<g>
	<polygon fill="#CC2E00" points="329,304.6 189.7,304.6 189.7,295.8 205.2,264.7 344.6,264.7 344.6,273.8 	"/>
	<g>
		
			<image overflow="visible" opacity="0.5" enable-background="new    " width="175" height="72" xlink:href="6D95CA52.png"  transform="matrix(1.125 0 0 1.125 172.75 250.25)">
		</image>
		<g>
			
				<linearGradient id="SVGID_1_" gradientUnits="userSpaceOnUse" x1="168.2278" y1="429.1647" x2="168.2278" y2="401.5207" gradientTransform="matrix(1.125 0 0 1.125 77.875 -187)">
				<stop  offset="0" style="stop-color:#F26100"/>
				<stop  offset="1" style="stop-color:#FF8533"/>
			</linearGradient>
			<polygon fill="url(#SVGID_1_)" points="329,295.8 189.7,295.8 205.2,264.7 344.6,264.7 			"/>
		</g>
	</g>
</g>
<g id="green">
	<polygon fill="#3E9C40" points="250.5,242.2 111.1,242.2 111.1,233.4 126.7,202.3 266.1,202.3 266.1,211.4 	"/>
	<g>
		
			<image overflow="visible" opacity="0.5" enable-background="new    " width="168" height="59" xlink:href="6D95CA55.png"  transform="matrix(1.125 0 0 1.125 94 188.375)">
		</image>
		<g>
			
				<linearGradient id="SVGID_2_" gradientUnits="userSpaceOnUse" x1="98.4267" y1="373.704" x2="98.4267" y2="346.06" gradientTransform="matrix(1.125 0 0 1.125 77.875 -187)">
				<stop  offset="0" style="stop-color:#51C953"/>
				<stop  offset="1" style="stop-color:#5CE55E"/>
			</linearGradient>
			<polygon fill="url(#SVGID_2_)" points="250.5,233.4 111.1,233.4 126.7,202.3 266.1,202.3 			"/>
		</g>
	</g>
</g>
<g>
	<polygon fill="#CC2E00" points="334.9,183.7 195.5,183.7 195.5,174.9 211.1,143.8 350.4,143.8 350.4,152.9 	"/>
	<g>
		
			<image overflow="visible" opacity="0.5" enable-background="new    " width="175" height="72" xlink:href="6D95CA56.png"  transform="matrix(1.125 0 0 1.125 178.375 129.875)">
		</image>
		<g>
			
				<linearGradient id="SVGID_3_" gradientUnits="userSpaceOnUse" x1="173.411" y1="321.6987" x2="173.411" y2="294.0547" gradientTransform="matrix(1.125 0 0 1.125 77.875 -187)">
				<stop  offset="0" style="stop-color:#F26100"/>
				<stop  offset="1" style="stop-color:#FF8533"/>
			</linearGradient>
			<polygon fill="url(#SVGID_3_)" points="334.9,174.9 195.5,174.9 211.1,143.8 350.4,143.8 			"/>
		</g>
	</g>
</g>
<g id="T">
	<g enable-background="new    ">
		<path fill="#444444" d="M637.8,304.6h-42V183.6h-37.9v-34.3h117.8v34.3h-37.8V304.6z"/>
	</g>
	<g>
		
			<image overflow="visible" opacity="0.5" enable-background="new    " width="136" height="170" xlink:href="6D95CA54.png"  transform="matrix(1.125 0 0 1.125 540.625 125.375)">
		</image>
		<g>
			<g>
				
					<linearGradient id="SVGID_4_" gradientUnits="userSpaceOnUse" x1="479.0255" y1="428.7044" x2="479.0255" y2="290.5655" gradientTransform="matrix(1.125 0 0 1.125 77.875 -187)">
					<stop  offset="0" style="stop-color:#444444"/>
					<stop  offset="1" style="stop-color:#5E5E5E"/>
				</linearGradient>
				<path fill="url(#SVGID_4_)" d="M637.8,295.3h-42V174.2h-37.9v-34.3h117.8v34.3h-37.8V295.3z"/>
			</g>
		</g>
	</g>
</g>
<g id="X">
	<g>
		<path fill="#3E9C40" d="M530.4,304.6h-48.6L451.6,256l-30,48.6h-47.5v-9.3l51.6-70.2l-48.5-75.9v-9.3l46.6,9.3l28.1,48l27-48
			l47.9-9.3v9.3l-49.2,79.2l52.9,66.9V304.6z"/>
	</g>
	<g>
		
			<image overflow="visible" opacity="0.5" enable-background="new    " width="170" height="170" xlink:href="6D95CA53.png"  transform="matrix(1.125 0 0 1.125 356.1249 125.375)">
		</image>
		<g>
			<g>
				
					<linearGradient id="SVGID_5_" gradientUnits="userSpaceOnUse" x1="332.781" y1="428.6732" x2="332.7811" y2="290.5342" gradientTransform="matrix(1.125 0 0 1.125 77.875 -187)">
					<stop  offset="0" style="stop-color:#51C953"/>
					<stop  offset="1" style="stop-color:#5CE55E"/>
				</linearGradient>
				<path fill="url(#SVGID_5_)" d="M530.4,295.3h-48.6l-30.3-48.6l-30,48.6h-47.5l51.6-79.5l-48.5-75.9h46.6l28.1,48l27-48h47.9
					L477.5,219L530.4,295.3z"/>
			</g>
		</g>
	</g>
</g>
<g id="lines_1">
	<polygon opacity="0.5" fill="#FFFFFF" enable-background="new    " points="171.9,209.1 123.3,209.1 123.9,207.9 172.5,207.9 	"/>
	<polygon opacity="0.5" fill="#FFFFFF" enable-background="new    " points="167.2,217.9 118.7,217.9 119.2,216.7 167.8,216.7 	"/>
	<polygon opacity="0.5" fill="#FFFFFF" enable-background="new    " points="163.2,226.5 114.7,226.5 115.3,225.3 163.8,225.3 	"/>
</g>
<g id="lines_2">
	<polygon opacity="0.5" fill="#FFFFFF" enable-background="new    " points="256,150.9 207.4,150.9 208,149.8 256.6,149.8 	"/>
	<polygon opacity="0.5" fill="#FFFFFF" enable-background="new    " points="251.6,159.7 203,159.7 203.6,158.6 252.2,158.6 	"/>
	<polygon opacity="0.5" fill="#FFFFFF" enable-background="new    " points="247.3,168.3 198.8,168.3 199.3,167.2 247.9,167.2 	"/>
</g>
<g id="lines_3">
	<polygon opacity="0.5" fill="#FFFFFF" enable-background="new    " points="249.7,272.5 201.2,272.5 201.7,271.4 250.3,271.4 	"/>
	<polygon opacity="0.5" fill="#FFFFFF" enable-background="new    " points="245.3,281.3 196.7,281.3 197.3,280.2 245.9,280.2 	"/>
	<polygon opacity="0.5" fill="#FFFFFF" enable-background="new    " points="241,289.9 192.5,289.9 193.1,288.8 241.6,288.8 	"/>
</g>
<g id="lines_4">
	<polygon opacity="0.5" fill="#FFFFFF" enable-background="new    " points="435.9,272.1 389.3,272 390.1,270.8 436.7,270.9 	"/>
	<polygon opacity="0.5" fill="#FFFFFF" enable-background="new    " points="430.4,280.8 383.6,280.8 384.4,279.7 431.2,279.7 	"/>
	<polygon opacity="0.5" fill="#FFFFFF" enable-background="new    " points="425.2,289.5 378,289.5 378.8,288.3 425.9,288.3 	"/>
</g>
<g id="lines_5">
	<polygon opacity="0.5" fill="#FFFFFF" enable-background="new    " points="519.7,151.1 472.5,151 473.1,149.9 520.5,149.9 	"/>
	<polygon opacity="0.5" fill="#FFFFFF" enable-background="new    " points="514.3,159.8 467.5,159.8 468.3,158.7 515.1,158.7 	"/>
	<polygon opacity="0.5" fill="#FFFFFF" enable-background="new    " points="508.9,168.5 462.6,168.5 463.4,167.3 509.7,167.3 	"/>
</g>
<g id="lines_6">
	<polygon opacity="0.5" fill="#FFFFFF" enable-background="new    " points="430.7,151.7 384.7,151.6 384,150.5 429.9,150.5 	"/>
	<polygon opacity="0.5" fill="#FFFFFF" enable-background="new    " points="435.8,160.5 390.3,160.5 389.6,159.3 435.1,159.3 	"/>
	<polygon opacity="0.5" fill="#FFFFFF" enable-background="new    " points="440.8,169.1 395.9,169.2 395.1,167.9 440.1,167.9 	"/>
</g>
<g id="lines_7">
	<polygon opacity="0.5" fill="#FFFFFF" enable-background="new    " points="514,271.6 467,271.4 466.3,270.3 513.1,270.3 	"/>
	<polygon opacity="0.5" fill="#FFFFFF" enable-background="new    " points="520.1,280.3 472.5,280.3 471.8,279.1 519.2,279.1 	"/>
	<polygon opacity="0.5" fill="#FFFFFF" enable-background="new    " points="526,288.9 478,289 477.2,287.8 525.2,287.8 	"/>
</g>
<g id="lines_8">
	<polygon opacity="0.5" fill="#FFFFFF" enable-background="new    " points="637.8,208.6 595.8,208.5 595.8,207.4 637.8,207.4 	"/>
	<rect x="595.8" y="216.2" opacity="0.5" fill="#FFFFFF" enable-background="new    " width="42" height="1.2"/>
	<polygon opacity="0.5" fill="#FFFFFF" enable-background="new    " points="637.8,225.9 595.8,226 595.8,224.8 637.8,224.8 	"/>
</g>
</svg>
