<?xml version="1.0" encoding="utf-8"?>
<!-- Generator: Adobe Illustrator 18.1.1, SVG Export Plug-In . SVG Version: 6.00 Build 0)  -->
<svg version="1.1" id="Слой_1" xmlns="http://www.w3.org/2000/svg" xmlns:xlink="http://www.w3.org/1999/xlink" x="0px" y="0px"
	 viewBox="-377.3 210 30 30" enable-background="new -377.3 210 30 30" xml:space="preserve">
<path fill="#FFFFFF" d="M-362.3,214.9c-2.9,0-5.2,2.3-5.2,5.2s2.3,5.2,5.2,5.2c2.9,0,5.2-2.3,5.2-5.2
	C-357.1,217.3-359.5,214.9-362.3,214.9z M-362.3,218c1.2,0,2.2,1,2.2,2.2s-1,2.2-2.2,2.2c-1.2,0-2.2-1-2.2-2.2S-363.5,218-362.3,218
	z M-366.6,225.5c-0.5,0-1,0.2-1.3,0.7c-0.4,0.7-0.2,1.7,0.5,2.1c0.9,0.6,2,1,3,1.3l-2.9,2.9c-0.6,0.6-0.6,1.6,0,2.2
	c0.3,0.3,0.7,0.4,1.1,0.4c0.4,0,0.8-0.1,1.1-0.4l2.9-2.9l2.9,2.9c0.6,0.6,1.6,0.6,2.2,0c0.6-0.6,0.6-1.6,0-2.2l-2.9-2.9
	c1.1-0.2,2.1-0.7,3-1.3c0.7-0.4,0.9-1.4,0.5-2.1c-0.4-0.7-1.4-0.9-2.1-0.5c-2.1,1.3-4.9,1.3-7,0
	C-366.1,225.6-366.4,225.5-366.6,225.5L-366.6,225.5L-366.6,225.5z"/>
</svg>
