<?xml version="1.0" encoding="utf-8"?>
<!-- Generator: Adobe Illustrator 20.0.0, SVG Export Plug-In . SVG Version: 6.00 Build 0)  -->
<svg version="1.1" id="Слой_1" xmlns="http://www.w3.org/2000/svg" xmlns:xlink="http://www.w3.org/1999/xlink" x="0px" y="0px"
	 viewBox="0 0 30 30" style="enable-background:new 0 0 30 30;" xml:space="preserve">
<path style="fill:#FFFFFF;" d="M14.9,4.9c-2.9,0-5.2,2.3-5.2,5.2s2.3,5.2,5.2,5.2c2.9,0,5.2-2.3,5.2-5.2C20.1,7.3,17.7,4.9,14.9,4.9
	z M14.9,8c1.2,0,2.2,1,2.2,2.2s-1,2.2-2.2,2.2s-2.2-1-2.2-2.2S13.7,8,14.9,8z M10.6,15.5c-0.5,0-1,0.2-1.3,0.7
	c-0.4,0.7-0.2,1.7,0.5,2.1c0.9,0.6,2,1,3,1.3l-2.9,2.9c-0.6,0.6-0.6,1.6,0,2.2c0.3,0.3,0.7,0.4,1.1,0.4s0.8-0.1,1.1-0.4l2.9-2.9
	l2.9,2.9c0.6,0.6,1.6,0.6,2.2,0s0.6-1.6,0-2.2l-2.9-2.9c1.1-0.2,2.1-0.7,3-1.3c0.7-0.4,0.9-1.4,0.5-2.1c-0.4-0.7-1.4-0.9-2.1-0.5
	c-2.1,1.3-4.9,1.3-7,0C11.1,15.6,10.8,15.5,10.6,15.5L10.6,15.5L10.6,15.5z"/>
</svg>
