<?xml version="1.0" encoding="utf-8"?>
<!-- Generator: Adobe Illustrator 20.0.0, SVG Export Plug-In . SVG Version: 6.00 Build 0)  -->
<svg version="1.1" id="Слой_1" xmlns="http://www.w3.org/2000/svg" xmlns:xlink="http://www.w3.org/1999/xlink" x="0px" y="0px"
	 viewBox="0 0 30 30" style="enable-background:new 0 0 30 30;" xml:space="preserve">
<path style="fill:#FFFFFF;" d="M25.1,8.7c-0.6,0.8-1.3,1.5-2.1,2.1c0,0.1,0,0.3,0,0.5c0,1.1-0.2,2.2-0.5,3.3s-0.8,2.2-1.5,3.2
	s-1.4,1.9-2.4,2.7s-2,1.4-3.3,1.9s-2.7,0.7-4.1,0.7c-2.3,0-4.4-0.6-6.3-1.8c0.3,0,0.6,0.1,1,0.1c1.9,0,3.6-0.6,5.1-1.8
	c-0.9,0-1.7-0.3-2.4-0.8s-1.2-1.2-1.5-2c0.3,0,0.5,0.1,0.8,0.1c0.4,0,0.7,0,1.1-0.1c-1-0.2-1.7-0.7-2.4-1.4s-0.9-1.6-0.9-2.6v-0.1
	c0.6,0.3,1.2,0.5,1.9,0.5c-0.6-0.4-1-0.9-1.3-1.5s-0.5-1.3-0.5-2S6,8.3,6.4,7.6c1,1.3,2.3,2.3,3.8,3c1.5,0.8,3.1,1.2,4.7,1.3
	c-0.1-0.3-0.1-0.6-0.1-0.9c0-1.1,0.4-2.1,1.2-2.9c0.8-0.8,1.8-1.2,2.9-1.2c1.2,0,2.2,0.4,3,1.3c0.9-0.2,1.8-0.5,2.6-1
	c-0.3,1-0.9,1.7-1.8,2.3C23.6,9.2,24.4,9,25.1,8.7L25.1,8.7z"/>
</svg>
