<?xml version="1.0" encoding="utf-8"?>
<!-- Generator: Adobe Illustrator 20.0.0, SVG Export Plug-In . SVG Version: 6.00 Build 0)  -->
<svg version="1.1" id="Слой_1" xmlns="http://www.w3.org/2000/svg" xmlns:xlink="http://www.w3.org/1999/xlink" x="0px" y="0px"
	 viewBox="0 0 30 30" style="enable-background:new 0 0 30 30;" xml:space="preserve">
<path style="display:none;fill:#FFFFFF;" d="M-377.5,214v3.2h-1.9c-0.7,0-1.2,0.1-1.4,0.4c-0.2,0.3-0.4,0.7-0.4,1.3v2.3h3.6
	l-0.5,3.6h-3.1v9.2h-3.7v-9.2h-3.1v-3.6h3.1v-2.6c0-1.5,0.4-2.7,1.3-3.5s2-1.2,3.4-1.2C-379.1,213.9-378.2,213.9-377.5,214
	L-377.5,214z"/>
<path style="fill:#FFFFFF;" d="M24,9.4c-0.6-2.1-2.5-4.6-9-4.6c-6.8,0-9.6,2.2-9.6,9.2c0,5.8,2.3,7.6,4.6,8.2c0,0.2,0,1.4,0,2
	c0,1.3,1,1.2,1.5,0.7c0.8-0.9,1.8-2.1,1.8-2.1c7.2,0,11.3-0.9,11.3-9C24.6,12.5,24.5,11.1,24,9.4z M13.7,21.3c0,0-1.8,2.2-2.6,3.1
	c-0.1,0.2-0.5,0.4-0.5,0.1c0-1.1-0.1-3.5,0-3.7c-1.5-0.7-3.7-1.1-3.7-6.9c0-6.6,3.1-7.7,8.1-7.7c7.9,0,8.1,3.4,8.1,8.9
	C23.1,21.8,16.5,21.3,13.7,21.3z"/>
<path style="fill:#FFFFFF;" d="M13.3,11.5c0,0.5-1,1.3-1,1.5c0,0.4,0.5,1.4,1.3,2.2c0.7,0.8,1.8,1.3,2.1,1.3c0.3,0,0.9-1.1,1.5-1.1
	c0.2,0,2.5,1.2,2.5,2c0,0.7-1.1,1.8-1.8,1.8c-3,0-8.3-5.6-8.3-8.5c0-1,1.5-1.8,1.7-1.8C12.2,9,13.3,11.2,13.3,11.5z"/>
<image style="display:none;overflow:visible;opacity:0.5;" width="100" height="110" xlink:href="C:\Users\Marketolog\Downloads\Icon_big.png"  transform="matrix(0.1909 0 0 0.1909 -392.2954 213.45)">
</image>
<g>
	<path style="fill:#FFFFFF;" d="M14.8,9c2.6,0,4.7,2.1,4.7,4.7c0,0.4,0.6,0.6,0.6,0c0-3-2.4-5.3-5.3-5.3C14.3,8.4,14.3,9,14.8,9z"/>
	<path style="fill:#FFFFFF;" d="M15.3,10.3c1.6,0,2.9,1.3,2.9,2.9c0,0.5,0.5,0.5,0.5,0c0-1.9-1.6-3.5-3.5-3.5
		C14.8,9.8,14.9,10.3,15.3,10.3z"/>
	<path style="fill:#FFFFFF;" d="M15.8,11.7c0.6,0,1.1,0.5,1.1,1.1c0,0.6,0.5,0.5,0.5,0c0-0.9-0.7-1.6-1.6-1.6
		C15.2,11.2,15.2,11.7,15.8,11.7z"/>
</g>
</svg>
