<?xml version="1.0" encoding="utf-8"?>
<!-- Generator: Adobe Illustrator 18.1.1, SVG Export Plug-In . SVG Version: 6.00 Build 0)  -->
<svg version="1.1" id="Слой_1" xmlns="http://www.w3.org/2000/svg" xmlns:xlink="http://www.w3.org/1999/xlink" x="0px" y="0px"
	 viewBox="-388 210 30 30" enable-background="new -388 210 30 30" xml:space="preserve">
<path fill="#FFFFFF" d="M-374.2,223.6c0,0.3,0.1,0.6,0.4,0.8c0.3,0.3,0.6,0.5,0.9,0.8c0.4,0.3,0.7,0.5,1.1,0.9
	c0.4,0.3,0.7,0.7,0.9,1.2s0.4,1.1,0.4,1.7c0,0.7-0.2,1.4-0.6,2c-0.6,1-1.4,1.7-2.5,2.1c-1.1,0.4-2.2,0.7-3.5,0.7c-1,0-2-0.2-2.9-0.5
	c-0.9-0.3-1.6-0.9-2-1.6c-0.3-0.5-0.4-1-0.4-1.5c0-0.6,0.2-1.2,0.5-1.8c0.3-0.5,0.8-1,1.4-1.3c1-0.6,2.6-1,4.7-1.2
	c-0.3-0.3-0.4-0.6-0.6-0.9s-0.2-0.5-0.2-0.9c0-0.3,0.1-0.6,0.2-1c-0.4,0-0.6,0-0.8,0c-1.2,0-2.1-0.4-2.9-1.1
	c-0.8-0.8-1.2-1.7-1.2-2.9c0-0.6,0.1-1.3,0.4-1.9c0.3-0.6,0.7-1.1,1.2-1.5c0.6-0.5,1.3-0.9,2.1-1.1s1.7-0.4,2.5-0.4h4.9l-1.6,1h-1.5
	c0.6,0.5,1,1,1.3,1.6c0.3,0.5,0.4,1.2,0.4,1.9c0,0.6-0.1,1.1-0.3,1.5c-0.2,0.4-0.4,0.8-0.7,1.1s-0.5,0.5-0.8,0.8
	c-0.3,0.2-0.5,0.5-0.7,0.7C-374.1,223.1-374.2,223.3-374.2,223.6L-374.2,223.6z M-375.9,222.5c0.3,0,0.6-0.1,0.9-0.2
	s0.6-0.3,0.8-0.5c0.4-0.4,0.6-1.1,0.6-1.9c0-0.5-0.1-0.9-0.2-1.5s-0.3-1-0.6-1.5c-0.2-0.5-0.6-0.9-1-1.2c-0.4-0.3-0.9-0.5-1.4-0.5
	c-0.3,0-0.7,0.1-1,0.2s-0.6,0.4-0.8,0.6c-0.4,0.5-0.6,1.1-0.6,1.9c0,0.4,0,0.7,0.1,1.1c0.1,0.4,0.2,0.8,0.4,1.2s0.4,0.8,0.6,1.1
	c0.2,0.3,0.5,0.6,0.9,0.8S-376.3,222.5-375.9,222.5L-375.9,222.5z M-375.9,232.7c0.5,0,0.9-0.1,1.3-0.2c0.4-0.1,0.8-0.3,1.2-0.5
	c0.4-0.2,0.6-0.5,0.9-0.9s0.3-0.8,0.3-1.3c0-0.2,0-0.4-0.1-0.6s-0.1-0.4-0.2-0.5c-0.1-0.1-0.2-0.3-0.3-0.5c-0.2-0.2-0.3-0.3-0.3-0.4
	s-0.2-0.2-0.5-0.4c-0.2-0.2-0.4-0.3-0.4-0.3s-0.2-0.2-0.5-0.4s-0.4-0.3-0.4-0.3c-0.1,0-0.3,0-0.6,0c-0.4,0-0.8,0-1.2,0.1
	s-0.8,0.2-1.3,0.3c-0.4,0.1-0.8,0.3-1.1,0.5s-0.6,0.5-0.8,0.9c-0.2,0.4-0.3,0.8-0.3,1.2c0,0.5,0.1,1,0.4,1.4s0.6,0.7,1.1,1
	s0.9,0.4,1.4,0.5C-376.9,232.6-376.4,232.7-375.9,232.7L-375.9,232.7z M-366.4,222.4h2.5v1.3h-2.5v2.6h-1.2v-2.6h-2.5v-1.3h2.5v-2.5
	h1.2C-366.4,219.9-366.4,222.4-366.4,222.4z"/>
</svg>
