<?xml version="1.0" encoding="utf-8"?>
<!-- Generator: Adobe Illustrator 18.1.1, SVG Export Plug-In . SVG Version: 6.00 Build 0)  -->
<svg version="1.1" id="Слой_1" xmlns="http://www.w3.org/2000/svg" xmlns:xlink="http://www.w3.org/1999/xlink" x="0px" y="0px"
	 viewBox="-388 210 30 30" enable-background="new -388 210 30 30" xml:space="preserve">
<path fill="#FFFFFF" d="M-363,218.8c-0.6,0.8-1.3,1.5-2.1,2.1c0,0.1,0,0.3,0,0.5c0,1.1-0.2,2.2-0.5,3.3c-0.3,1.1-0.8,2.2-1.5,3.2
	c-0.7,1-1.4,1.9-2.4,2.7s-2,1.4-3.3,1.9c-1.3,0.5-2.7,0.7-4.1,0.7c-2.3,0-4.4-0.6-6.3-1.8c0.3,0,0.6,0.1,1,0.1
	c1.9,0,3.6-0.6,5.1-1.8c-0.9,0-1.7-0.3-2.4-0.8s-1.2-1.2-1.5-2c0.3,0,0.5,0.1,0.8,0.1c0.4,0,0.7,0,1.1-0.1c-1-0.2-1.7-0.7-2.4-1.4
	s-0.9-1.6-0.9-2.6v-0.1c0.6,0.3,1.2,0.5,1.9,0.5c-0.6-0.4-1-0.9-1.3-1.5c-0.3-0.6-0.5-1.3-0.5-2c0-0.7,0.2-1.4,0.6-2.1
	c1,1.3,2.3,2.3,3.8,3c1.5,0.8,3.1,1.2,4.7,1.3c-0.1-0.3-0.1-0.6-0.1-0.9c0-1.1,0.4-2.1,1.2-2.9c0.8-0.8,1.8-1.2,2.9-1.2
	c1.2,0,2.2,0.4,3,1.3c0.9-0.2,1.8-0.5,2.6-1c-0.3,1-0.9,1.7-1.8,2.3C-364.5,219.3-363.7,219.1-363,218.8L-363,218.8z"/>
</svg>
